#!OML:ASF F:\VICON\USERDATA\INSTALL\rory3\rory3.ASF
:FULLY-SPECIFIED
:DEGREES
3131
root -12.1218 17.8334 15.7692 540.427 -44.3638 175.811
lowerback 10.2485 -6.64529 -3.44517
upperback 0.17457 -9.22162 5.1872
thorax -4.10777 -4.56978 8.57836
lowerneck 6.72856 -14.5531 -15.067
upperneck 30.1581 -36.6966 14.383
head 15.2881 -18.6912 2.39792
rclavicle -5.96354e-015 5.56597e-014
rhumerus -36.407 -9.70109 -74.9859
rradius 37.3785
rwrist 1.9974
rhand -18.1053 7.05597
rfingers 7.12502
rthumb 8.1687 -22.7661
lclavicle -5.96354e-015 5.56597e-014
lhumerus -31.3732 2.27985 87.9045
lradius 40.6484
lwrist -4.47653
lhand -15.2757 26.2461
lfingers 7.12502
lthumb 10.8989 55.9433
rfemur -7.1511 7.45712 24.1033
rtibia 29.3406
rfoot -14.7857 5.24673
rtoes 24.2441
lfemur -14.4196 3.25813 -18.9486
ltibia 44.8638
lfoot -13.377 2.02222
ltoes -7.64464
3132
root -12.0793 17.8345 15.7863 540.451 -45.0687 175.82
lowerback 10.1154 -6.72484 -3.44733
upperback 0.0713346 -9.31951 5.19954
thorax -4.12439 -4.61326 8.59079
lowerneck 6.70309 -14.5583 -15.1314
upperneck 30.2084 -36.6126 14.3558
head 15.3067 -18.6568 2.40768
rclavicle -8.90555e-014 8.26944e-014
rhumerus -36.7197 -10.0325 -74.6958
rradius 37.2844
rwrist 1.93833
rhand -17.9712 7.3401
rfingers 7.12502
rthumb 8.2981 -22.4769
lclavicle -8.90555e-014 8.26944e-014
lhumerus -31.5013 2.18669 87.9844
lradius 40.6099
lwrist -3.97154
lhand -15.6324 26.0469
lfingers 7.12502
lthumb 10.5548 55.7619
rfemur -7.21261 7.25689 24.2225
rtibia 29.2433
rfoot -14.7638 4.60194
rtoes 23.1807
lfemur -14.1034 3.83414 -18.998
ltibia 45.6435
lfoot -12.9133 2.28092
ltoes -3.90856
3133
root -12.0343 17.823 15.8048 540.425 -45.7922 175.908
lowerback 10.0044 -6.78767 -3.42181
upperback -0.0293647 -9.3927 5.21682
thorax -4.1582 -4.64447 8.59428
lowerneck 6.86586 -14.576 -15.1635
upperneck 29.9259 -36.537 14.6259
head 15.2077 -18.6279 2.55018
rclavicle 1.68967e-014 -2.38542e-014
rhumerus -36.9903 -10.3597 -74.4423
rradius 37.0772
rwrist 1.90674
rhand -18.101 7.28671
rfingers 7.12502
rthumb 8.17284 -22.5352
lclavicle 1.68967e-014 -2.38542e-014
lhumerus -31.53 2.12925 88.1022
lradius 40.4438
lwrist -3.452
lhand -16.5475 26.128
lfingers 7.12502
lthumb 9.67198 55.8859
rfemur -7.3591 6.57135 24.3503
rtibia 29.1882
rfoot -14.8382 4.4317
rtoes 21.7252
lfemur -13.8637 4.53496 -18.9919
ltibia 46.4337
lfoot -12.3327 2.63202
ltoes -2.3044
3134
root -11.9878 17.8154 15.8203 540.317 -46.4946 176.039
lowerback 9.91614 -6.84047 -3.38648
upperback -0.114767 -9.45234 5.21293
thorax -4.19589 -4.6692 8.57062
lowerneck 7.16837 -14.5928 -15.0624
upperneck 29.5691 -36.3921 14.8432
head 14.9887 -18.5796 2.70625
rclavicle 5.82439e-014 1.43125e-014
rhumerus -37.2961 -10.7217 -74.2236
rradius 36.817
rwrist 2.0149
rhand -18.4233 7.15563
rfingers 7.12502
rthumb 7.86181 -22.6782
lclavicle 5.82439e-014 1.43125e-014
lhumerus -31.5029 2.2622 88.0842
lradius 40.1139
lwrist -3.29934
lhand -17.1947 25.9257
lfingers 7.12502
lthumb 9.04746 55.7116
rfemur -7.52693 6.03435 24.5287
rtibia 29.2759
rfoot -14.8334 4.18441
rtoes 22.301
lfemur -13.5132 5.40753 -19.0064
ltibia 47.0903
lfoot -11.8761 3.15911
ltoes -6.52622
3135
root -11.9439 17.8272 15.831 540.308 -47.2092 176.022
lowerback 9.78983 -6.88053 -3.47645
upperback -0.17736 -9.50891 5.19444
thorax -4.1713 -4.69316 8.59088
lowerneck 7.09901 -14.6546 -14.9614
upperneck 29.6907 -36.3385 14.6689
head 14.9794 -18.5437 2.64012
rclavicle -9.44227e-015 2.70347e-014
rhumerus -37.6193 -11.0651 -73.9658
rradius 36.6316
rwrist 2.16492
rhand -18.8184 7.05377
rfingers 7.12502
rthumb 7.48041 -22.794
lclavicle -9.44227e-015 2.70347e-014
lhumerus -31.5004 2.20446 88.1111
lradius 39.8385
lwrist -3.03249
lhand -17.3638 24.883
lfingers 7.12502
lthumb 8.88426 54.6759
rfemur -7.61363 5.88307 24.6397
rtibia 29.3014
rfoot -14.7304 3.5999
rtoes 23.8447
lfemur -12.9921 5.76066 -19.0333
ltibia 47.6314
lfoot -12.1691 2.89253
ltoes -4.27174
3136
root -11.9003 17.8183 15.8432 540.341 -47.9001 175.959
lowerback 9.69854 -6.89581 -3.56463
upperback -0.281955 -9.53007 5.16211
thorax -4.21894 -4.69396 8.60253
lowerneck 6.94209 -14.6796 -15.0833
upperneck 29.9864 -36.4557 14.5951
head 15.1855 -18.5855 2.55909
rclavicle 4.1049e-014 -4.29375e-014
rhumerus -38.0218 -11.4734 -73.6204
rradius 36.4726
rwrist 2.40117
rhand -18.7968 7.44001
rfingers 7.12502
rthumb 7.5013 -22.407
lclavicle 4.1049e-014 -4.29375e-014
lhumerus -31.5663 2.25709 88.0757
lradius 39.7745
lwrist -3.71372
lhand -16.9076 26.1135
lfingers 7.12502
lthumb 9.32454 55.8872
rfemur -7.72887 5.85207 24.7424
rtibia 29.3525
rfoot -14.6216 2.90542
rtoes 23.5136
lfemur -12.4367 6.30913 -19.1851
ltibia 47.9496
lfoot -12.4465 3.49652
ltoes -8.28226
3137
root -11.8527 17.8322 15.8525 540.376 -48.6061 175.873
lowerback 9.73395 -6.93175 -3.72864
upperback -0.410338 -9.58947 5.15145
thorax -4.33973 -4.70824 8.70513
lowerneck 6.83429 -14.6966 -15.1925
upperneck 30.1637 -36.457 14.5252
head 15.2982 -18.5834 2.51917
rclavicle 9.02482e-014 -6.36111e-015
rhumerus -38.3832 -11.6748 -73.3358
rradius 36.2508
rwrist 2.5216
rhand -18.316 8.36703
rfingers 7.12502
rthumb 7.96532 -21.4629
lclavicle 9.02482e-014 -6.36111e-015
lhumerus -31.5851 2.84227 87.7985
lradius 39.8206
lwrist -5.95786
lhand -15.0441 30.3919
lfingers 7.12502
lthumb 11.1222 60.0772
rfemur -7.79118 5.72932 24.8251
rtibia 29.3521
rfoot -14.4797 2.24729
rtoes 22.8801
lfemur -11.8648 6.77565 -19.2645
ltibia 48.2199
lfoot -12.6989 3.54611
ltoes -7.06282
3138
root -11.8031 17.8286 15.8629 540.378 -49.3223 175.824
lowerback 9.80893 -6.99394 -3.92027
upperback -0.543861 -9.68955 5.17695
thorax -4.47005 -4.74213 8.87209
lowerneck 6.7145 -14.6962 -15.2818
upperneck 30.3356 -36.3574 14.3868
head 15.3639 -18.5407 2.47985
rclavicle 6.25178e-014 2.06736e-014
rhumerus -38.7375 -11.6167 -73.1579
rradius 36.1347
rwrist 2.44535
rhand -17.9462 8.46388
rfingers 7.12502
rthumb 8.32229 -21.3522
lclavicle 6.25178e-014 2.06736e-014
lhumerus -31.5653 3.34313 87.6381
lradius 39.2396
lwrist -6.1784
lhand -15.2018 27.9742
lfingers 7.12502
lthumb 10.9701 57.6675
rfemur -7.91052 5.58415 24.9329
rtibia 29.4264
rfoot -14.4193 1.66203
rtoes 23.2149
lfemur -11.2096 7.2495 -19.3017
ltibia 48.3755
lfoot -12.7079 3.69974
ltoes -6.20421
3139
root -11.7558 17.8274 15.8787 540.306 -49.972 175.956
lowerback 9.75767 -7.01044 -3.91291
upperback -0.640357 -9.7055 5.21083
thorax -4.53622 -4.74354 8.90759
lowerneck 6.64368 -14.7387 -15.3732
upperneck 30.4318 -36.3624 14.351
head 15.4368 -18.5368 2.45805
rclavicle 4.41302e-014 1.90833e-014
rhumerus -39.0332 -11.6877 -72.9994
rradius 35.9845
rwrist 2.41347
rhand -17.9416 8.10699
rfingers 7.12502
rthumb 8.32669 -21.7089
lclavicle 4.41302e-014 1.90833e-014
lhumerus -31.4532 3.06598 87.9309
lradius 39.0038
lwrist -5.19004
lhand -16.1786 27.9691
lfingers 7.12502
lthumb 10.0278 57.7102
rfemur -8.10437 5.52552 25.1268
rtibia 29.4224
rfoot -14.218 1.19029
rtoes 24.2481
lfemur -10.6574 7.80647 -19.2888
ltibia 48.4788
lfoot -12.4707 4.12482
ltoes -8.46571
3140
root -11.7113 17.8314 15.8962 540.303 -50.6563 176.014
lowerback 9.59355 -7.0152 -3.93374
upperback -0.65817 -9.70894 5.21728
thorax -4.45851 -4.7478 8.90063
lowerneck 6.66155 -14.7875 -15.4437
upperneck 30.3271 -36.3813 14.5346
head 15.4559 -18.5308 2.5246
rclavicle -7.55382e-015 -4.29375e-014
rhumerus -39.1423 -11.8683 -72.8387
rradius 35.5248
rwrist 2.63195
rhand -18.262 8.31343
rfingers 7.12502
rthumb 8.01743 -21.5145
lclavicle -7.55382e-015 -4.29375e-014
lhumerus -31.2051 3.27082 87.884
lradius 38.7299
lwrist -5.92087
lhand -15.9442 28.6422
lfingers 7.12502
lthumb 10.254 58.3723
rfemur -8.36725 5.31508 25.252
rtibia 29.4844
rfoot -13.868 0.672847
rtoes 24.7468
lfemur -10.1293 8.3827 -19.3482
ltibia 48.4481
lfoot -11.921 4.28498
ltoes -11.1911
3141
root -11.6684 17.8372 15.9034 540.473 -51.4654 175.821
lowerback 9.35948 -7.0634 -4.18822
upperback -0.644793 -9.79456 5.18614
thorax -4.26269 -4.79392 8.97213
lowerneck 6.65373 -14.8269 -15.4442
upperneck 30.2366 -36.3084 14.639
head 15.4281 -18.4824 2.57969
rclavicle -3.61788e-014 3.97569e-014
rhumerus -39.1145 -12.1271 -72.6499
rradius 34.7482
rwrist 3.15322
rhand -18.5446 8.96072
rfingers 7.12502
rthumb 7.74474 -20.8774
lclavicle -3.61788e-014 3.97569e-014
lhumerus -31.0983 3.34771 87.8195
lradius 38.6812
lwrist -5.94096
lhand -14.9589 27.2251
lfingers 7.12502
lthumb 11.2044 56.9059
rfemur -8.56749 5.01265 25.2406
rtibia 29.5535
rfoot -13.4863 0.0432254
rtoes 25.2738
lfemur -9.48616 8.88041 -19.4999
ltibia 48.2834
lfoot -11.4827 4.00102
ltoes -11.3972
